<svg xmlns="http://www.w3.org/2000/svg" viewBox="0 0 24 24" fill="#d73a31">
    <path d="M17.656 11.23C16.62 9.458 15.044 8 13.02 8c-1.962 0-3.502 1.35-4.32 3.02-1.385-1.12-2.14-2.84-2.14-4.69C6.56 3.99 8.947 2 11.75 2c.41 0 .81.05 1.2.14C14.54 3.42 16.5 5.75 16.5 8.5c0 1.26-.4 2.43-1.09 3.43.23-.03.47-.06.71-.06.75 0 1.45.19 2.06.52.02.01.04.02.05.04.64.35 1.02.92 1.02 1.76 0 1.02-.83 1.85-1.85 1.85-.09 0-.19-.01-.28-.02-1.3-.19-2.45-1.1-2.9-2.41a4.91 4.91 0 0 1-.57-2.39zm-5.886 5.75c.09.43.32.8.68 1.05.6.41 1.35.53 2.05.34.82-.23 1.48-.89 1.71-1.71.18-.6-.05-1.35-.46-2.05-.27-.47-.64-.84-1.05-1.05-.6-.41-1.35-.53-2.05-.34-.82.23-1.48.89-1.71 1.71-.18.6.05 1.35.46 2.05.1.24.22.46.35.66z"/>
</svg>